<?xml version="1.0" encoding="utf-8" ?><svg xmlns="http://www.w3.org/2000/svg" xmlns:xlink="http://www.w3.org/1999/xlink" width="780" height="552" viewBox="0 0 780 552"><defs><linearGradient id="gradient_0" gradientUnits="userSpaceOnUse" x1="364.34616" y1="324.0481" x2="228.12177" y2="114.79075"><stop offset="0" stop-color="#7179F5"/><stop offset="1" stop-color="#9971EF"/></linearGradient></defs><path fill="url(#gradient_0)" transform="matrix(1.31313 0 0 1.31429 0 3.05176e-05)" d="M177.882 200.24C175.615 195.864 174.812 188.304 175.338 183.395C175.755 179.687 176.793 176.076 178.407 172.713C184.774 159.744 196.109 160.409 203.918 148.889C207.86 143.074 208.202 139.139 210.045 132.658C212.66 123.465 217.954 116.625 226.211 111.86C240.294 103.733 252.921 112.409 266.737 105.138C270.674 103.066 274.221 99.7396 277.559 96.9131C287.395 88.5842 305.174 88.098 315.764 95.2156C321.834 99.2953 325.517 104.289 333.103 106.941C341.601 109.911 349.171 107.323 357.794 108.453C363.595 109.214 368.785 111.087 373.435 114.712C387.783 125.899 382.693 139.646 393.546 153.296L393.736 153.532C395.817 151.562 397.964 149.329 400.031 147.299C400.9 146.261 402.226 144.93 403.223 144.009C410.749 137.053 417.472 129.064 425.522 122.718C436.421 114.125 453.897 120.185 457.205 133.699C457.382 134.279 457.58 134.823 457.64 135.425C460.89 148.345 453.507 154.354 445.269 162.545C440.732 167.12 436.129 171.629 431.461 176.07C428.264 179.148 424.979 182.663 421.793 185.633C421.48 186.173 421.357 186.47 420.937 186.934C420.166 197.283 415.138 204.395 414.501 214.921C413.454 232.227 425.173 240.551 417.687 258.472C411.089 274.267 400.113 272.532 390.809 285.155C387.678 289.403 386.477 294.66 385.237 299.699C382.71 310.987 375.801 318.825 365.519 323.752C355.642 328.485 346.843 324.417 336.765 326.442C330.365 327.728 325.649 330.912 320.92 335.089C313.799 341.379 304.743 344.754 295.223 343.972C280.515 343.022 276.247 333.604 264.059 328.298C250.275 322.297 240.415 330.413 226.966 322.249C222.941 319.806 221.795 318.86 218.508 315.328C210.534 307.44 211.525 295.155 206.309 286.602C197.687 273.007 184.952 274.415 178.092 258.55C169.959 239.739 183.52 230.408 181.258 212.333C180.857 209.128 180.05 206.566 178.953 203.565C178.659 202.76 177.985 201.018 177.882 200.24Z"/><path fill="#8E7DF0" transform="matrix(1.31313 0 0 1.31429 0 3.05176e-05)" d="M400.031 147.299C400.9 146.261 402.226 144.93 403.223 144.009C410.749 137.053 417.472 129.064 425.522 122.718C436.421 114.125 453.897 120.185 457.205 133.699C457.382 134.279 457.58 134.823 457.64 135.425C460.89 148.345 453.507 154.354 445.269 162.545C440.732 167.12 436.129 171.629 431.461 176.07C428.264 179.148 424.979 182.663 421.793 185.633C421.48 186.173 421.357 186.47 420.937 186.934C418.907 187.848 401.027 206.359 398.146 209.234L369.872 237.189L339.813 266.435C339.287 267.453 336.785 269.397 335.765 270.017C330.23 273.379 323.956 274.037 317.71 272.605C314.057 271.767 312.399 270.807 309.617 268.462C305.368 264.88 301.764 260.462 298.001 256.375L281.839 239.088C280.525 237.667 272.095 228.78 271.356 227.61C265.154 220.557 254.038 210.758 249.59 202.882C242.122 189.655 253.227 171.859 268.752 172.165C281.754 172.421 289.675 184.459 297.894 193.353L324.217 221.824L391.868 155.071L393.736 153.532C395.817 151.562 397.964 149.329 400.031 147.299Z"/><path fill="#4E4C5A" transform="matrix(1.31313 0 0 1.31429 0 3.05176e-05)" d="M402.509 147.953C405.686 144.165 410.258 140.175 413.786 136.61C423.385 126.912 432.754 115.059 447.691 123.708C452.431 126.452 453.838 129.547 456.802 133.695L457.205 133.699C457.382 134.279 457.58 134.823 457.64 135.425C460.89 148.345 453.507 154.354 445.269 162.545C440.732 167.12 436.129 171.629 431.461 176.07C428.264 179.148 424.979 182.663 421.793 185.633C422.263 183.751 425.896 180.612 427.51 178.785C426.565 178.596 422.547 183.766 420.634 184.159C418.807 185.744 417.137 187.441 415.42 189.143C415.113 188.65 415.174 188.614 415.169 188.016L415.721 187.543L415.81 187.737C417.11 186.908 417.849 186.148 418.965 185.093C419.086 177.172 415.182 172.463 409.121 168.954C408.719 168.722 407.542 165.8 407.059 165.482C406.191 164.91 405.774 165.306 404.974 164.214C405.505 164.38 405.941 164.521 406.491 164.637C405.788 164.055 404.728 163.537 404.461 162.871C405.088 163.167 405.194 163.35 405.774 163.286C404.883 160.569 398.288 156.213 395.7 154.46L398.794 151.344L401.006 149.108C401.199 149.021 402.272 148.141 402.509 147.953Z"/><path fill="#6F669C" transform="matrix(1.31313 0 0 1.31429 0 3.05176e-05)" d="M401.006 149.108C401.199 149.021 402.272 148.141 402.509 147.953C402.094 149.427 401.119 150.243 400.085 151.326C402.242 153.121 407.793 157.97 408.515 160.538C409.614 161.195 410.217 160 411.881 160.685L411.724 160.93L410.901 161.103L410.633 161.944C411.092 162.126 411.532 162.297 411.985 162.495C412.648 162.784 413.843 163.193 414.23 163.721L413.49 164.095C413.892 165.031 415.319 164.584 416.071 165.778C414.841 165.703 413.536 165.063 412.898 165.377C415.65 169.304 418.941 173.37 421.964 177.094C422.979 178.345 422.748 178.804 422.715 180.452C423.428 180.565 423.877 180.23 424.637 179.918C423.597 181.022 422.6 182.122 421.464 183.128L420.634 184.159C418.807 185.744 417.137 187.441 415.42 189.143C415.113 188.65 415.174 188.614 415.169 188.016L415.721 187.543L415.81 187.737C417.11 186.908 417.849 186.148 418.965 185.093C419.086 177.172 415.182 172.463 409.121 168.954C408.719 168.722 407.542 165.8 407.059 165.482C406.191 164.91 405.774 165.306 404.974 164.214C405.505 164.38 405.941 164.521 406.491 164.637C405.788 164.055 404.728 163.537 404.461 162.871C405.088 163.167 405.194 163.35 405.774 163.286C404.883 160.569 398.288 156.213 395.7 154.46L398.794 151.344L401.006 149.108Z"/><path fill="#A29FA7" transform="matrix(1.31313 0 0 1.31429 0 3.05176e-05)" d="M424.637 179.918C430 174.819 435.244 169.478 440.557 164.248C445.86 158.748 451.424 154.715 455.318 147.99C457.443 144.321 456.52 137.335 457.64 135.425C460.89 148.345 453.507 154.354 445.269 162.545C440.732 167.12 436.129 171.629 431.461 176.07C428.264 179.148 424.979 182.663 421.793 185.633C422.263 183.751 425.896 180.612 427.51 178.785C426.565 178.596 422.547 183.766 420.634 184.159L421.464 183.128C422.6 182.122 423.597 181.022 424.637 179.918Z"/><path fill="#CDC1E5" transform="matrix(1.31313 0 0 1.31429 0 3.05176e-05)" d="M400.031 147.299C400.9 146.261 402.226 144.93 403.223 144.009C410.749 137.053 417.472 129.064 425.522 122.718C436.421 114.125 453.897 120.185 457.205 133.699L456.802 133.695C453.838 129.547 452.431 126.452 447.691 123.708C432.754 115.059 423.385 126.912 413.786 136.61C410.258 140.175 405.686 144.165 402.509 147.953C402.272 148.141 401.199 149.021 401.006 149.108L398.794 151.344L395.7 154.46C390.153 159.311 384.55 165.349 379.192 170.572L350.723 198.567C342.249 207.052 332.797 216.865 324.026 225.036C321.547 221.602 317.265 217.221 314.294 214.059L298.432 197.251L288.334 186.439C283.508 181.198 279.355 175.623 271.703 174.628C260.784 173.21 251.345 180.218 249.673 191.256C247.753 203.931 259.666 211.448 266.738 220.101C267.716 221.298 270.189 223.526 270.841 224.717L270.314 224.629L270.137 224.348C268.713 222.116 266.992 221.335 265.213 219.467C264.349 218.56 264.483 217.516 263.214 216.916L262.961 217.225C263.724 220.141 271.309 225.586 271.356 227.61C265.154 220.557 254.038 210.758 249.59 202.882C242.122 189.655 253.227 171.859 268.752 172.165C281.754 172.421 289.675 184.459 297.894 193.353L324.217 221.824L391.868 155.071L393.736 153.532C395.817 151.562 397.964 149.329 400.031 147.299Z"/><path fill="#A29FA7" transform="matrix(1.31313 0 0 1.31429 0 3.05176e-05)" d="M400.031 147.299C400.9 146.261 402.226 144.93 403.223 144.009C410.749 137.053 417.472 129.064 425.522 122.718C436.421 114.125 453.897 120.185 457.205 133.699L456.802 133.695C453.838 129.547 452.431 126.452 447.691 123.708C432.754 115.059 423.385 126.912 413.786 136.61C410.258 140.175 405.686 144.165 402.509 147.953C402.272 148.141 401.199 149.021 401.006 149.108C401.239 147.136 423.068 126.683 425.676 124.116C428.705 121.136 437.085 119.476 441.3 120.648C442.202 120.899 443.939 121.284 444.708 121.39L444.66 121.019C440.364 117.918 433.681 119.736 429.46 121.079C423.559 122.956 403.204 146.853 400.031 147.299Z"/><path fill="#CDC1E5" transform="matrix(1.31313 0 0 1.31429 0 3.05176e-05)" d="M420.634 184.159C422.547 183.766 426.565 178.596 427.51 178.785C425.896 180.612 422.263 183.751 421.793 185.633C421.48 186.173 421.357 186.47 420.937 186.934C418.907 187.848 401.027 206.359 398.146 209.234L369.872 237.189L339.813 266.435C340.253 264.255 377.374 229.968 380.889 225.507C381.306 224.978 382.363 224.126 382.928 223.174L382.664 222.466L382.855 222.642L382.293 222.477C381.584 222.827 376.357 228.239 375.356 229.238C368.128 236.452 360.818 243.91 353.456 250.959C351.199 253.12 342.717 262.349 340.71 263.778L340.583 263.541L396.659 207.446C402.515 201.537 410.051 195.347 415.42 189.143C417.137 187.441 418.807 185.744 420.634 184.159Z"/><defs><linearGradient id="gradient_1" gradientUnits="userSpaceOnUse" x1="308.08649" y1="181.54744" x2="279.21643" y2="94.313301"><stop offset="0" stop-color="#A483FC"/><stop offset="1" stop-color="#D1A1FE"/></linearGradient></defs><path fill="url(#gradient_1)" transform="matrix(1.31313 0 0 1.31429 0 3.05176e-05)" d="M177.882 200.24C175.615 195.864 174.812 188.304 175.338 183.395C175.755 179.687 176.793 176.076 178.407 172.713C184.774 159.744 196.109 160.409 203.918 148.889C207.86 143.074 208.202 139.139 210.045 132.658C212.66 123.465 217.954 116.625 226.211 111.86C240.294 103.733 252.921 112.409 266.737 105.138C270.674 103.066 274.221 99.7396 277.559 96.9131C287.395 88.5842 305.174 88.098 315.764 95.2156C321.834 99.2953 325.517 104.289 333.103 106.941C341.601 109.911 349.171 107.323 357.794 108.453C363.595 109.214 368.785 111.087 373.435 114.712C387.783 125.899 382.693 139.646 393.546 153.296L393.736 153.532L391.868 155.071C382.304 145.01 384.139 140.926 380.531 129.279C377.623 119.888 364.366 110.646 354.642 111.35C347.869 111.402 341.786 112.249 335.098 110.779C320.757 107.626 317.793 95.7124 302.506 93.7759C298.611 93.261 294.655 93.4469 290.825 94.3248C277.249 97.4066 275.265 106.719 262.941 110.213C247.236 114.666 235.811 105.776 221.404 119.397C211.048 129.188 214.023 138.299 207.368 149.556C199.395 163.043 186.855 161.071 180.696 175.849C179.172 179.522 178.351 183.45 178.278 187.426C178.248 188.9 178.951 195.514 178.821 196.024C176.876 187.678 177.815 178.896 182.409 171.521C183.943 169.059 185.903 166.888 188.197 165.111C191.4 162.599 204.528 155.878 204.78 151.535C204.515 150.907 204.529 150.739 203.952 150.394C202.291 151.719 201.507 153.325 200.994 153.7C198.994 155.145 197.122 156.738 195.175 158.243C192.713 160.11 189.806 161.383 187.293 163.164C178.226 169.591 174.366 181.494 176.168 192.225C176.504 194.227 178.033 198.568 177.882 200.24Z"/></svg>